<svg width="14" height="14" viewBox="0 0 14 14" fill="none" xmlns="http://www.w3.org/2000/svg">
<path d="M11.2028 9.85159C11.1006 9.74939 11.0866 9.57299 11.165 9.45119C11.781 8.50339 12.1422 7.37499 12.1422 6.16259C12.1422 2.81379 9.4178 0.0907898 6.0718 0.0907898C2.723 0.0907898 0 2.81379 0 6.16259C0 9.50999 2.723 12.233 6.0718 12.233C7.3752 12.233 8.582 11.8144 9.5732 11.1116C9.6894 11.0276 9.8644 11.0388 9.9666 11.1396L12.1366 13.3096C12.1506 13.3236 12.166 13.3376 12.1814 13.3488C12.2066 13.3698 12.3116 13.4678 12.4124 13.57L12.67 13.8262C12.7722 13.927 12.9374 13.927 13.0382 13.8262L13.923 12.9414C14.0252 12.8392 14.0252 12.674 13.9244 12.5718L11.2028 9.85159ZM9.744 8.99059C9.5438 9.25099 9.3184 9.48899 9.0692 9.70039C8.26 10.3878 7.2142 10.805 6.0718 10.805C3.5112 10.805 1.428 8.72179 1.428 6.16259C1.428 3.60339 3.5112 1.51879 6.0718 1.51879C8.631 1.51879 10.7142 3.60199 10.7142 6.16259C10.7142 7.22659 10.3488 8.20659 9.744 8.99059Z" fill="#74ABFF"/>
</svg>
