<svg width="14" height="14" viewBox="0 0 14 14" fill="none" xmlns="http://www.w3.org/2000/svg">
<path d="M11.2029 9.89437C11.1007 9.79078 11.0867 9.61196 11.1651 9.48849C11.7811 8.52772 12.1424 7.38388 12.1424 6.15489C12.1424 2.76026 9.41792 0 6.07188 0C2.72303 0 0 2.76026 0 6.15489C0 9.5481 2.72303 12.3084 6.07188 12.3084C7.37529 12.3084 8.58211 11.884 9.57332 11.1716C9.68952 11.0865 9.86452 11.0978 9.96672 11.2L12.1368 13.3997C12.1508 13.4139 12.1662 13.4281 12.1816 13.4394C12.2068 13.4607 12.3118 13.5601 12.4126 13.6637L12.6702 13.9234C12.7724 14.0255 12.9376 14.0255 13.0384 13.9234L13.9232 13.0265C14.0254 12.9229 14.0254 12.7554 13.9246 12.6518L11.2029 9.89437ZM9.74412 9.02159C9.54392 9.28555 9.31852 9.52681 9.06931 9.7411C8.2601 10.4379 7.21429 10.8608 6.07188 10.8608C3.51124 10.8608 1.42802 8.74911 1.42802 6.15489C1.42802 3.56067 3.51124 1.44754 6.07188 1.44754C8.63111 1.44754 10.7143 3.55925 10.7143 6.15489C10.7143 7.23345 10.3489 8.22686 9.74412 9.02159Z" fill="#5196FF"/>
</svg>
