<svg width="36" height="24" viewBox="0 0 36 24" fill="none" xmlns="http://www.w3.org/2000/svg">
<path d="M20.2223 18.3815C20.1479 18.2135 20.1311 17.9687 20.1935 17.7959C20.6759 16.4279 21.1703 15.0671 21.6839 13.7087C22.2311 12.2663 22.6559 10.8143 22.4423 9.2375C22.1999 7.4471 21.4655 5.8967 20.1431 4.6727C19.4975 4.0775 18.7415 3.6095 17.9927 3.0527C18.0503 2.8943 18.1439 2.6471 18.2351 2.3999C18.3839 1.9919 18.2687 1.6727 17.9255 1.5455C17.5727 1.4159 17.2775 1.5623 17.1119 1.9583C17.0039 2.2127 16.9079 2.4695 16.8023 2.7335C15.8039 2.4887 14.8175 2.3903 13.8167 2.5343C10.8335 2.9615 8.6807 4.5263 7.5167 7.3175C6.8039 9.0335 6.2159 10.8023 5.5823 12.5495C5.5055 12.7655 5.3831 12.8927 5.1743 12.9863C4.1135 13.4615 3.0599 13.9511 1.9991 14.4335C1.7159 14.5607 1.5047 14.7407 1.5119 15.0767C1.5191 15.4247 1.7639 15.5639 2.0519 15.6671C4.0319 16.3775 6.0071 17.0951 7.9919 17.7911C8.2895 17.8967 8.3927 18.0143 8.3759 18.3431C8.2751 20.5463 10.3415 22.1879 12.4799 21.6287C13.3463 21.4031 14.0063 20.8967 14.5031 20.1431C14.6063 20.1791 14.6999 20.2127 14.7935 20.2439C16.8047 20.9639 18.8159 21.6839 20.8271 22.4087C21.1295 22.5167 21.4079 22.5623 21.6575 22.3055C21.9167 22.0367 21.8087 21.7607 21.6743 21.4775C21.1799 20.4527 20.6879 19.4231 20.2223 18.3815ZM11.1191 20.4599C10.1615 20.1839 9.5279 19.3247 9.5951 18.3455C10.8479 18.7919 12.0743 19.2311 13.3055 19.6703C12.9551 20.3423 11.9495 20.6999 11.1191 20.4599Z" fill="#BDBDBD"/>
<circle cx="26" cy="12" r="9" fill="#FF6760" stroke="#F6F8FB" stroke-width="2"/>
<path d="M24.7496 10.94C24.7496 11.3433 24.8529 11.6517 25.0596 11.865C25.2696 12.075 25.5663 12.18 25.9496 12.18C26.1496 12.18 26.3279 12.1483 26.4846 12.085C26.6413 12.0217 26.7729 11.935 26.8796 11.825C26.9863 11.715 27.0663 11.585 27.1196 11.435C27.1763 11.285 27.2046 11.1233 27.2046 10.95C27.2046 10.7533 27.1746 10.5783 27.1146 10.425C27.0546 10.2683 26.9696 10.1367 26.8596 10.03C26.7496 9.92333 26.6179 9.84167 26.4646 9.785C26.3146 9.72833 26.1496 9.7 25.9696 9.7C25.7829 9.7 25.6146 9.73167 25.4646 9.795C25.3146 9.855 25.1863 9.94 25.0796 10.05C24.9729 10.16 24.8913 10.2917 24.8346 10.445C24.7779 10.595 24.7496 10.76 24.7496 10.94ZM26.3896 13.195C26.4463 13.125 26.4996 13.0567 26.5496 12.99C26.5996 12.9233 26.6479 12.8567 26.6946 12.79C26.5279 12.8967 26.3446 12.9783 26.1446 13.035C25.9446 13.0883 25.7346 13.115 25.5146 13.115C25.2646 13.115 25.0196 13.0717 24.7796 12.985C24.5396 12.8983 24.3263 12.7683 24.1396 12.595C23.9529 12.4183 23.8013 12.2017 23.6846 11.945C23.5713 11.685 23.5146 11.3817 23.5146 11.035C23.5146 10.7117 23.5746 10.4083 23.6946 10.125C23.8146 9.84167 23.9829 9.59333 24.1996 9.38C24.4163 9.16667 24.6763 8.99833 24.9796 8.875C25.2829 8.75167 25.6179 8.69 25.9846 8.69C26.3546 8.69 26.6863 8.74833 26.9796 8.865C27.2763 8.98167 27.5279 9.145 27.7346 9.355C27.9446 9.565 28.1046 9.81667 28.2146 10.11C28.3279 10.4033 28.3846 10.725 28.3846 11.075C28.3846 11.2983 28.3646 11.51 28.3246 11.71C28.2879 11.91 28.2346 12.1033 28.1646 12.29C28.0946 12.4733 28.0096 12.6533 27.9096 12.83C27.8096 13.0067 27.6979 13.1817 27.5746 13.355L25.9196 15.715C25.8629 15.795 25.7779 15.8633 25.6646 15.92C25.5513 15.9733 25.4229 16 25.2796 16H24.1446L26.3896 13.195Z" fill="white"/>
</svg>
